# xmcd CD database file
#
# Track frame offsets:
#	150
#	18012
#	36252
#	48340
#	73372
#	85785
#	103165
#	114430
#	141107
#	159417
#	183547
#	196350
#	220800
#	240675
#	263827
#	274190
#	293415
#
# Disc length: 4032 seconds
#
# Revision: 0
# Processed by: cddbd v1.5.1PL2 Copyright (c) Steve Scherf et al.
# Submitted via: CDex 1.51
#
DISCID=f40fbe11
DTITLE=Oude Stijl Jazz Festival Breda - Volume II
DYEAR=1990
DGENRE=Jazz
TTITLE0=Shanghai Shuffle
TTITLE1=Out Of The Gallion	
TTITLE2=Five Foot Two
TTITLE3=I'll Be A Friend With Pleasure
TTITLE4=Precious Lord, Take My Hand
TTITLE5=Once In A While
TTITLE6=Wistfull And Blue
TTITLE7=Body And Soul
TTITLE8=Ease On Down
TTITLE9=Papa De Da Da
TTITLE10=Jeep's Blues
TTITLE11=Gatemouth
TTITLE12=Bogalousa Strut
TTITLE13=Swing 42
TTITLE14=Muddy Water
TTITLE15=Black Butterfly
TTITLE16=Song Of Breda
EXTD=YEAR: 1990
EXTT0=
EXTT1=
EXTT2=
EXTT3=
EXTT4=
EXTT5=
EXTT6=
EXTT7=
EXTT8=
EXTT9=
EXTT10=
EXTT11=
EXTT12=
EXTT13=
EXTT14=
EXTT15=
EXTT16=
PLAYORDER=
